HIERARCHY
ROOT Hips
{
 OFFSET 0.000000 0.000000 0.000000
 CHANNELS 6 Xposition Yposition Zposition Yrotation Xrotation Zrotation
 JOINT Chest
 {
  OFFSET 0.000000 9.585900 0.002600
  CHANNELS 3 Yrotation Xrotation Zrotation
  JOINT Chest2
  {
   OFFSET 0.000000 9.601200 -0.005300
   CHANNELS 3 Yrotation Xrotation Zrotation
   JOINT Chest3
   {
    OFFSET 0.000000 9.561800 0.000000
    CHANNELS 3 Yrotation Xrotation Zrotation
    JOINT Chest4
    {
     OFFSET 0.000000 9.552100 0.000000
     CHANNELS 3 Yrotation Xrotation Zrotation
     JOINT Neck
     {
      OFFSET 0.000000 14.453000 0.000000
      CHANNELS 3 Yrotation Xrotation Zrotation
      JOINT Head
      {
       OFFSET 0.000000 8.936500 -0.011300
       CHANNELS 3 Yrotation Xrotation Zrotation
       End Site
       {
        OFFSET 0.000000 17.073600 -0.006000
       }
      }
     }
     JOINT RightCollar
     {
      OFFSET -2.921100 9.558500 0.000000
      CHANNELS 3 Yrotation Xrotation Zrotation
      JOINT RightShoulder
      {
       OFFSET -13.519700 0.000000 0.000000
       CHANNELS 3 Yrotation Xrotation Zrotation
       JOINT RightElbow
       {
        OFFSET 0.000000 -29.696600 0.000000
        CHANNELS 3 Yrotation Xrotation Zrotation
        JOINT RightWrist
        {
         OFFSET 0.000000 -24.004700 0.000000
         CHANNELS 3 Yrotation Xrotation Zrotation
         End Site
         {
          OFFSET 0.000000 -17.728500 0.000000
         }
        }
       }
      }
     }
     JOINT LeftCollar
     {
      OFFSET 2.921100 9.558500 0.000000
      CHANNELS 3 Yrotation Xrotation Zrotation
      JOINT LeftShoulder
      {
       OFFSET 13.519700 0.000000 0.000000
       CHANNELS 3 Yrotation Xrotation Zrotation
       JOINT LeftElbow
       {
        OFFSET 0.000000 -29.696600 0.000000
        CHANNELS 3 Yrotation Xrotation Zrotation
        JOINT LeftWrist
        {
         OFFSET 0.000000 -24.004700 0.000000
         CHANNELS 3 Yrotation Xrotation Zrotation
         End Site
         {
          OFFSET 0.000000 -17.728500 0.000000
         }
        }
       }
      }
     }
    }
   }
  }
 }
 JOINT RightHip
 {
  OFFSET -7.771700 -0.012900 -0.001300
  CHANNELS 3 Yrotation Xrotation Zrotation
  JOINT RightKnee
  {
   OFFSET 0.000000 -40.869800 0.001200
   CHANNELS 3 Yrotation Xrotation Zrotation
   JOINT RightAnkle
   {
    OFFSET 0.000000 -39.717900 0.002100
    CHANNELS 3 Yrotation Xrotation Zrotation
    JOINT RightToe
    {
     OFFSET 0.000000 -4.965400 11.033500
     CHANNELS 3 Yrotation Xrotation Zrotation
     End Site
     {
      OFFSET 0.000000 -1.423100 5.872300
     }
    }
   }
  }
 }
 JOINT LeftHip
 {
  OFFSET 7.771700 -0.012900 -0.001300
  CHANNELS 3 Yrotation Xrotation Zrotation
  JOINT LeftKnee
  {
   OFFSET 0.000000 -40.869800 0.001200
   CHANNELS 3 Yrotation Xrotation Zrotation
   JOINT LeftAnkle
   {
    OFFSET 0.000000 -39.717900 0.002100
    CHANNELS 3 Yrotation Xrotation Zrotation
    JOINT LeftToe
    {
     OFFSET 0.000000 -4.965400 11.033500
     CHANNELS 3 Yrotation Xrotation Zrotation
     End Site
     {
      OFFSET 0.000000 -1.423100 5.872300
     }
    }
   }
  }
 }
}
MOTION
Frames: 13
Frame Time: 0.008333
-17.200012 54.696379 27.905337 -175.350344 -32.325165 -10.800779 -0.099655 13.494489 5.490500 -0.133335 7.757284 2.035517 -0.150623 9.706130 2.540493 -0.163555 7.764736 2.029276 3.014337 21.100275 -0.299449 3.366451 -3.235963 -1.035568 1.087666 5.913544 -2.362555 -20.428159 -10.259191 6.066164 10.025270 -73.834785 2.361000 11.313648 -3.314747 -8.328637 -8.760302 4.523301 -3.318855 3.753704 -2.517803 -1.516054 -77.829504 -68.887852 85.154450 11.418068 -17.829218 -0.556241 -16.442006 -34.441123 0.371487 16.488095 87.399941 10.827419 -0.888355 -17.739912 5.873996 -0.089191 0.418992 -0.035392 -15.568120 -45.986597 12.745323 167.539127 79.404559 161.918028 -1.717491 -15.647381 2.467784 -0.888787 -2.671624 -0.380842
-17.203296 54.710268 27.903339 -175.322075 -32.327109 -10.799807 -0.085740 13.486566 5.492484 -0.162927 7.764019 2.029157 -0.123280 9.703411 2.545659 -0.146801 7.766972 2.032892 2.987244 21.124331 -0.246972 3.268123 -3.205321 -0.963813 1.128824 5.977579 -2.329362 -20.501219 -10.320542 6.083958 9.881983 -73.755516 2.475213 11.343058 -3.230418 -8.317374 -8.806453 4.534526 -3.354859 3.785633 -2.598314 -1.572074 -77.722397 -68.901323 85.048832 11.409927 -17.706214 -0.673561 -16.446688 -34.437718 0.347265 16.443101 87.405460 10.780808 -0.895088 -17.746644 5.882071 -0.087797 0.419379 -0.035075 -15.553891 -45.980120 12.726072 167.596089 79.417943 161.969233 -1.726878 -15.648294 2.485471 -0.887880 -2.667109 -0.378938
-17.205111 54.723730 27.901507 -175.295557 -32.322587 -10.800892 -0.049424 13.484554 5.513560 -0.184234 7.757382 2.020261 -0.121871 9.716255 2.552938 -0.164767 7.756720 2.030026 2.968162 21.146675 -0.210794 3.204840 -3.189655 -0.902082 1.142187 5.997998 -2.319172 -20.490912 -10.335511 6.106908 9.652152 -73.682391 2.643156 11.361034 -3.144600 -8.337139 -8.816869 4.540350 -3.390415 3.798852 -2.662410 -1.629938 -77.603108 -68.940872 84.932993 11.407826 -17.584427 -0.773008 -16.458674 -34.439832 0.331190 16.518927 87.409963 10.850296 -0.894481 -17.751983 5.886769 -0.087324 0.417869 -0.034369 -15.546744 -45.979344 12.715114 167.658171 79.430792 162.027075 -1.738189 -15.649814 2.499564 -0.882085 -2.662012 -0.378796
-17.208271 54.737221 27.898393 -175.247539 -32.319785 -10.802029 -0.086834 13.490318 5.494154 -0.154020 7.764388 2.033162 -0.121471 9.724924 2.556041 -0.154155 7.770965 2.035883 2.918095 21.151766 -0.175140 3.155153 -3.180743 -0.854539 1.130002 5.985689 -2.318650 -20.458283 -10.341337 6.137200 9.390159 -73.620485 2.815407 11.355235 -3.057958 -8.373141 -8.851389 4.514186 -3.420505 3.793529 -2.711868 -1.696031 -77.485782 -69.004406 84.828053 11.412411 -17.468443 -0.858795 -16.475965 -34.436239 0.296837 16.530620 87.418760 10.856942 -0.889099 -17.767896 5.888128 -0.091405 0.421431 -0.029180 -15.548913 -45.975962 12.683490 167.697882 79.444836 162.064714 -1.752159 -15.651957 2.504724 -0.867427 -2.654417 -0.376818
-17.209646 54.750290 27.895434 -175.228564 -32.318956 -10.796721 -0.077227 13.500844 5.500065 -0.126146 7.792562 2.053756 -0.172359 9.689923 2.531767 -0.121812 7.813404 2.052904 2.872935 21.158083 -0.139261 3.108885 -3.165604 -0.805732 1.158818 5.985064 -2.321496 -20.443545 -10.365485 6.180285 9.061815 -73.553665 3.034568 11.341783 -2.992173 -8.408354 -8.880221 4.504139 -3.460155 3.771570 -2.776746 -1.760673 -77.385555 -69.090165 84.751360 11.418228 -17.359977 -0.937805 -16.465326 -34.435546 0.270892 16.585283 87.421489 10.916320 -0.892713 -17.778285 5.893215 -0.088829 0.423136 -0.028622 -15.541163 -45.972681 12.670281 167.758140 79.455108 162.114545 -1.748574 -15.648851 2.519020 -0.874628 -2.656543 -0.378003
-17.209965 54.762866 27.892535 -175.225179 -32.320593 -10.790105 -0.040100 13.524968 5.526501 -0.144055 7.791622 2.045829 -0.167892 9.696328 2.535692 -0.130756 7.814215 2.054311 2.848388 21.190936 -0.095660 3.065104 -3.143121 -0.755991 1.191213 5.992604 -2.323519 -20.405019 -10.380650 6.223870 8.686931 -73.488899 3.291021 11.323864 -2.951058 -8.422020 -8.898977 4.474596 -3.470665 3.750855 -2.789645 -1.851537 -77.311175 -69.191811 84.708762 11.420302 -17.259690 -1.014324 -16.453009 -34.434629 0.253158 16.647703 87.424960 10.984293 -0.891085 -17.787027 5.893251 -0.085766 0.424984 -0.029354 -15.531525 -45.968998 12.666334 167.813756 79.460038 162.158024 -1.730642 -15.640730 2.531229 -0.892189 -2.666871 -0.384613
-17.211970 54.773939 27.890546 -175.205990 -32.315027 -10.783708 -0.033349 13.541202 5.531176 -0.152973 7.789712 2.042910 -0.136716 9.752002 2.564658 -0.174542 7.748245 2.029100 2.839469 21.249581 -0.042416 3.021913 -3.118457 -0.706213 1.239294 6.019680 -2.318196 -20.370375 -10.388447 6.269524 8.307989 -73.434341 3.553763 11.302815 -2.931956 -8.407488 -8.898067 4.489126 -3.483966 3.715502 -2.807671 -1.931425 -77.273819 -69.295531 84.710548 11.418127 -17.168305 -1.087477 -16.454823 -34.441516 0.229318 16.666415 87.433864 11.003801 -0.889352 -17.796784 5.896280 -0.083521 0.424387 -0.031875 -15.529089 -45.970215 12.659217 167.880268 79.470724 162.209577 -1.735504 -15.642343 2.544192 -0.892756 -2.663419 -0.385800
-17.216959 54.783822 27.888793 -175.164916 -32.307581 -10.774412 -0.065513 13.547453 5.507271 -0.157164 7.787957 2.041166 -0.119601 9.784014 2.580792 -0.171066 7.756088 2.030650 2.804385 21.268132 -0.001926 2.977647 -3.100112 -0.658848 1.297297 6.036058 -2.307685 -20.413960 -10.435819 6.295039 7.908424 -73.376154 3.892514 11.279667 -2.928177 -8.371609 -8.923308 4.463629 -3.498779 3.686262 -2.809061 -2.007675 -77.285232 -69.383002 84.763943 11.411937 -17.090708 -1.164146 -16.464679 -34.451716 0.184327 16.713754 87.444481 11.050919 -0.886332 -17.808337 5.901320 -0.083181 0.422778 -0.032688 -15.529621 -45.976652 12.631286 167.941401 79.482839 162.247407 -1.729237 -15.637222 2.569168 -0.908123 -2.662405 -0.389188
-17.219559 54.793394 27.887487 -175.140037 -32.304582 -10.774563 -0.081095 13.555583 5.501234 -0.147130 7.805473 2.051403 -0.117848 9.799649 2.587703 -0.147956 7.815554 2.055073 2.740178 21.225324 0.009734 2.932094 -3.094295 -0.615681 1.298753 5.980148 -2.319474 -20.381257 -10.444598 6.348496 7.701886 -73.355371 4.005914 11.256864 -2.931849 -8.326278 -8.969846 4.410355 -3.529205 3.665371 -2.832005 -2.077603 -77.339894 -69.439711 84.858905 11.402847 -17.031511 -1.261159 -16.468026 -34.453712 0.160255 16.778380 87.450377 11.119820 -0.887680 -17.820969 5.904964 -0.081874 0.425562 -0.033678 -15.530205 -45.975212 12.621092 167.980640 79.492109 162.280707 -1.743555 -15.644305 2.576407 -0.898281 -2.652779 -0.386419
-17.222086 54.802253 27.886845 -175.122951 -32.303258 -10.774104 -0.056088 13.592754 5.529491 -0.163747 7.793521 2.042713 -0.124587 9.817520 2.591935 -0.148282 7.826721 2.059495 2.703351 21.221330 0.036818 2.901626 -3.109468 -0.599558 1.305970 5.957553 -2.313954 -20.354972 -10.445607 6.397674 7.591322 -73.349285 4.057280 11.238383 -2.934830 -8.286002 -8.988008 4.357857 -3.541809 3.649521 -2.805462 -2.146208 -77.422025 -69.457527 84.980429 11.396790 -16.989306 -1.384670 -16.475919 -34.454515 0.141105 16.939476 87.452269 11.281575 -0.883616 -17.837343 5.902127 -0.084512 0.433961 -0.033278 -15.534076 -45.976619 12.610810 167.966298 79.493949 162.260776 -1.740834 -15.640069 2.580123 -0.904225 -2.655726 -0.389444
-17.226853 54.809549 27.887752 -175.102343 -32.294949 -10.763781 -0.062733 13.608074 5.524669 -0.148950 7.838327 2.064477 -0.141869 9.798268 2.583370 -0.148929 7.838305 2.064481 2.665969 21.212706 0.057734 2.902512 -3.147977 -0.631135 1.306459 5.931808 -2.304812 -20.355764 -10.456646 6.427699 7.516984 -73.352443 4.117053 11.228954 -2.933326 -8.260702 -9.011194 4.332390 -3.563076 3.644799 -2.808708 -2.202702 -77.521275 -69.440909 85.115995 11.392987 -16.960313 -1.520961 -16.481101 -34.469636 0.115429 17.168401 87.460756 11.503998 -0.891135 -17.845939 5.909376 -0.084687 0.436387 -0.033699 -15.527910 -45.986334 12.597300 167.940421 79.499023 162.216277 -1.755170 -15.636352 2.602373 -0.906521 -2.656095 -0.397028
-17.229596 54.817194 27.888484 -175.090627 -32.293843 -10.762755 -0.063475 13.624483 5.529918 -0.147407 7.853527 2.072827 -0.145802 9.801837 2.583619 -0.149800 7.846667 2.068120 2.634239 21.218752 0.082035 2.858477 -3.160024 -0.599861 1.304601 5.918399 -2.287743 -20.363686 -10.464622 6.452921 7.465723 -73.370448 4.174068 11.261855 -2.928498 -8.260926 -9.053363 4.385241 -3.581558 3.668570 -2.874497 -2.258186 -77.635882 -69.405060 85.251008 11.380029 -16.938553 -1.648928 -16.484833 -34.474013 0.107063 17.349963 87.464011 11.678821 -0.900029 -17.850806 5.917985 -0.083449 0.435211 -0.035362 -15.519500 -45.984266 12.585880 167.949952 79.507150 162.226777 -1.756949 -15.649838 2.595004 -0.903815 -2.641308 -0.387908
-17.232728 54.824101 27.890104 -175.083040 -32.290050 -10.757607 -0.069935 13.627314 5.524510 -0.142032 7.874904 2.086516 -0.148713 9.813142 2.588947 -0.155423 7.822213 2.054161 2.621059 21.229245 0.097314 2.761885 -3.110345 -0.487327 1.304046 5.918144 -2.275807 -20.377112 -10.451603 6.488376 7.388243 -73.397234 4.272541 11.305503 -2.915114 -8.273993 -9.068036 4.418972 -3.587987 3.678387 -2.890434 -2.305527 -77.745056 -69.370474 85.374006 11.355479 -16.914094 -1.781762 -16.484838 -34.482754 0.094198 17.505084 87.467659 11.829737 -0.900092 -17.859222 5.923834 -0.082673 0.436439 -0.037304 -15.502417 -45.987296 12.571444 167.936136 79.515150 162.216895 -1.771303 -15.659744 2.596626 -0.895838 -2.628110 -0.383521
